#!OML:ASF H:\Dans Jumps\Project 1\Capture day 1\Session 1\subject.ASF
:FULLY-SPECIFIED
:DEGREES
202
root 0.324422 14.5361 -15.2558 18.3804 1.16459 -0.512818
lowerback 23.6173 0.383922 -0.272392
upperback 9.42632 0.536571 1.90751
thorax -2.83123 0.220892 2.07191
lowerneck -22.8534 -0.25904 -2.70388
upperneck 15.5075 0.675563 -0.71777
head 8.57249 0.0694314 0.2847
rclavicle 3.57812e-015 4.96962e-015
rhumerus -73.2396 -17.393 -41.5545
rradius 13.3251
rwrist 57.8096
rhand -17.8513 -22.9065
rfingers 7.12502
rthumb 8.41383 -52.7189
lclavicle 3.57812e-015 4.96962e-015
lhumerus -59.2781 11.1057 62.4175
lradius 4.91016
lwrist -3.93707
lhand -22.22 -2.45782
lfingers 7.12502
lthumb 4.19636 27.4806
rfemur -64.0571 -3.03235 19.8182
rtibia 79.4168
rfoot -31.1789 -17.0253
rtoes 0.970646
lfemur -63.5618 2.40444 -21.1307
ltibia 77.8363
lfoot -27.1822 19.2244
ltoes -0.151203
203
root 0.323915 14.5081 -15.2101 18.399 1.16096 -0.520376
lowerback 23.7736 0.423708 -0.24611
upperback 9.21811 0.597971 1.92775
thorax -3.13794 0.253847 2.06317
lowerneck -22.9087 -0.289526 -2.67345
upperneck 15.6981 0.647665 -0.804629
head 8.64824 0.0456645 0.246519
rclavicle 3.57812e-015 7.55382e-015
rhumerus -70.9565 -18.2552 -43.1051
rradius 13.3875
rwrist 57.5845
rhand -17.6391 -22.5353
rfingers 7.12502
rthumb 8.61863 -52.3394
lclavicle 3.57812e-015 7.55382e-015
lhumerus -56.6226 11.8277 63.0503
lradius 4.83047
lwrist -4.16245
lhand -22.2539 -2.62916
lfingers 7.12502
lthumb 4.16358 27.3099
rfemur -64.0798 -3.06631 19.8452
rtibia 79.774
rfoot -31.3063 -17.1243
rtoes 1.23792
lfemur -63.584 2.41513 -21.1138
ltibia 78.2032
lfoot -27.325 19.3937
ltoes -0.426232
204
root 0.32337 14.485 -15.1612 18.3896 1.15483 -0.529664
lowerback 23.9081 0.463937 -0.218106
upperback 8.99871 0.660337 1.94323
thorax -3.44626 0.287312 2.04767
lowerneck -22.9392 -0.317326 -2.63162
upperneck 15.923 0.617557 -0.881683
head 8.7317 0.0222794 0.209423
rclavicle -7.55382e-015 -9.93923e-015
rhumerus -68.4686 -18.9304 -45.0178
rradius 13.5743
rwrist 56.6837
rhand -17.456 -22.1362
rfingers 7.12502
rthumb 8.79537 -51.933
lclavicle -7.55382e-015 -9.93923e-015
lhumerus -53.916 12.5202 63.7301
lradius 4.86286
lwrist -4.49915
lhand -22.3847 -2.97321
lfingers 7.12502
lthumb 4.03727 26.9683
rfemur -64.0214 -3.10155 19.8745
rtibia 80.072
rfoot -31.4258 -17.2277
rtoes 1.46427
lfemur -63.5263 2.45741 -21.0998
ltibia 78.512
lfoot -27.47 19.5641
ltoes -0.886596
205
root 0.322773 14.4678 -15.1092 18.3552 1.14114 -0.536874
lowerback 24.0107 0.504732 -0.1935
upperback 8.77142 0.722264 1.9494
thorax -3.74754 0.320504 2.0238
lowerneck -22.9459 -0.344572 -2.59013
upperneck 16.1712 0.581586 -0.92842
head 8.81921 -0.000635531 0.181835
rclavicle 3.97569e-016 3.97569e-016
rhumerus -65.8 -19.3858 -47.2526
rradius 13.9127
rwrist 55.0384
rhand -17.3763 -21.816
rfingers 7.12502
rthumb 8.8722 -51.6095
lclavicle 3.97569e-016 3.97569e-016
lhumerus -51.2034 13.1692 64.4405
lradius 5.05098
lwrist -4.92726
lhand -22.6726 -3.52813
lfingers 7.12502
lthumb 3.75928 26.4185
rfemur -63.882 -3.13589 19.9014
rtibia 80.303
rfoot -31.5234 -17.3523
rtoes 1.57179
lfemur -63.3866 2.52932 -21.092
ltibia 78.7543
lfoot -27.6131 19.7257
ltoes -1.48259
206
root 0.321879 14.4558 -15.0543 18.3096 1.13114 -0.538051
lowerback 24.0721 0.539198 -0.17521
upperback 8.53398 0.774385 1.94794
thorax -4.03927 0.348848 1.9976
lowerneck -22.9475 -0.369584 -2.55786
upperneck 16.4469 0.544243 -0.938958
head 8.91528 -0.0209208 0.16788
rclavicle 3.57812e-015 9.54166e-015
rhumerus -62.9993 -19.6321 -49.6735
rradius 14.3919
rwrist 52.8364
rhand -17.5171 -21.6821
rfingers 7.12502
rthumb 8.7364 -51.4813
lclavicle 3.57812e-015 9.54166e-015
lhumerus -48.5368 13.7719 65.1651
lradius 5.44195
lwrist -5.36784
lhand -22.9386 -4.19332
lfingers 7.12502
lthumb 3.5024 25.7577
rfemur -63.6802 -3.17698 19.9244
rtibia 80.467
rfoot -31.5918 -17.5064
rtoes 1.50707
lfemur -63.182 2.61773 -21.0902
ltibia 78.9281
lfoot -27.7576 19.8655
ltoes -2.18967
207
root 0.320663 14.4502 -14.9966 18.2579 1.13197 -0.52906
lowerback 24.0847 0.560617 -0.162857
upperback 8.28796 0.807931 1.93635
thorax -4.31561 0.368151 1.96866
lowerneck -22.9482 -0.386719 -2.52536
upperneck 16.7436 0.512237 -0.923955
head 9.01853 -0.0359114 0.163365
rclavicle -3.18055e-015 -2.38542e-015
rhumerus -60.1163 -19.6927 -52.172
rradius 15.0201
rwrist 50.2913
rhand -17.8602 -21.7794
rfingers 7.12502
rthumb 8.40529 -51.5922
lclavicle -3.18055e-015 -2.38542e-015
lhumerus -45.9498 14.3239 65.8826
lradius 6.05822
lwrist -5.71259
lhand -23.2399 -4.87008
lfingers 7.12502
lthumb 3.21145 25.0855
rfemur -63.4148 -3.23052 19.9392
rtibia 80.5569
rfoot -31.6369 -17.6887
rtoes 1.2349
lfemur -62.9118 2.71043 -21.096
ltibia 79.0245
lfoot -27.9059 19.9757
ltoes -2.98731
208
root 0.318937 14.4509 -14.9361 18.2051 1.14266 -0.513015
lowerback 24.0493 0.569503 -0.160485
upperback 8.03065 0.822853 1.91916
thorax -4.57982 0.378372 1.94439
lowerneck -22.9478 -0.390946 -2.48514
upperneck 17.0625 0.494281 -0.903645
head 9.1295 -0.0433512 0.161391
rclavicle 0 -4.77083e-015
rhumerus -57.2167 -19.6368 -54.5806
rradius 15.7651
rwrist 47.7954
rhand -18.421 -22.0881
rfingers 7.12502
rthumb 7.86398 -51.9218
lclavicle 0 -4.77083e-015
lhumerus -43.4626 14.8265 66.5847
lradius 6.89449
lwrist -5.839
lhand -23.7475 -5.6443
lfingers 7.12502
lthumb 2.72125 24.3181
rfemur -63.0915 -3.28939 19.9456
rtibia 80.5694
rfoot -31.669 -17.8852
rtoes 0.777445
lfemur -62.5829 2.80786 -21.1053
ltibia 79.0416
lfoot -28.0652 20.0428
ltoes -3.82284
209
root 0.3166 14.4586 -14.8731 18.1493 1.17004 -0.491784
lowerback 23.9681 0.562819 -0.166677
upperback 7.76293 0.815798 1.90035
thorax -4.83185 0.37794 1.92932
lowerneck -22.9427 -0.377944 -2.42762
upperneck 17.4028 0.49719 -0.896939
head 9.24741 -0.0415906 0.154869
rclavicle 5.56597e-015 1.66979e-014
rhumerus -54.3307 -19.4805 -56.853
rradius 16.6133
rwrist 45.565
rhand -19.0912 -22.535
rfingers 7.12502
rthumb 7.21712 -52.392
lclavicle 5.56597e-015 1.66979e-014
lhumerus -41.0768 15.2829 67.266
lradius 7.92777
lwrist -5.66464
lhand -24.4063 -6.50842
lfingers 7.12502
lthumb 2.08493 23.4611
rfemur -62.703 -3.35609 19.9458
rtibia 80.4982
rfoot -31.7004 -18.078
rtoes 0.173364
lfemur -62.1902 2.90273 -21.1132
ltibia 78.9716
lfoot -28.23 20.0669
ltoes -4.66589
210
root 0.31383 14.474 -14.8076 18.0841 1.21173 -0.468458
lowerback 23.8494 0.545063 -0.182721
upperback 7.48823 0.792516 1.88561
thorax -5.07215 0.369639 1.9289
lowerneck -22.9347 -0.347692 -2.34814
upperneck 17.7664 0.523081 -0.91876
head 9.37347 -0.0311322 0.138159
rclavicle -5.56597e-015 -7.15625e-015
rhumerus -51.4774 -19.2105 -58.9892
rradius 17.5678
rwrist 43.6707
rhand -19.7672 -23.0205
rfingers 7.12502
rthumb 6.56454 -52.8988
lclavicle -5.56597e-015 -7.15625e-015
lhumerus -38.7815 15.6907 67.932
lradius 9.13846
lwrist -5.1482
lhand -25.1558 -7.49568
lfingers 7.12502
lthumb 1.36106 22.4797
rfemur -62.2361 -3.42971 19.9408
rtibia 80.3355
rfoot -31.7388 -18.2518
rtoes -0.525106
lfemur -61.7228 2.99431 -21.1173
ltibia 78.808
lfoot -28.3903 20.0575
ltoes -5.50181
211
root 0.310567 14.4978 -14.7396 18.0029 1.27133 -0.44967
lowerback 23.7018 0.519462 -0.204986
upperback 7.21193 0.758399 1.88192
thorax -5.29926 0.356086 1.94712
lowerneck -22.9249 -0.306912 -2.25986
upperneck 18.1509 0.565324 -0.959994
head 9.50712 -0.0149169 0.11558
rclavicle -3.18055e-015 -1.03368e-014
rhumerus -48.6689 -18.797 -61.0075
rradius 18.6492
rwrist 42.0331
rhand -20.3169 -23.4482
rfingers 7.12502
rthumb 6.03392 -53.3423
lclavicle -3.18055e-015 -1.03368e-014
lhumerus -36.5596 16.0489 68.5916
lradius 10.4984
lwrist -4.3221
lhand -25.8431 -8.63091
lfingers 7.12502
lthumb 0.697246 21.3477
rfemur -61.6794 -3.51047 19.9405
rtibia 80.0723
rfoot -31.7753 -18.408
rtoes -1.27752
lfemur -61.1738 3.07813 -21.108
ltibia 78.5426
lfoot -28.5227 20.0294
ltoes -6.32469
212
root 0.307029 14.5304 -14.6693 17.9022 1.3464 -0.43762
lowerback 23.5259 0.489726 -0.235775
upperback 6.94175 0.717858 1.89337
thorax -5.50495 0.339392 1.98853
lowerneck -22.9137 -0.262565 -2.17888
upperneck 18.5469 0.615716 -1.00302
head 9.64518 0.00426492 0.0947002
rclavicle 7.15625e-015 1.07344e-014
rhumerus -45.9024 -18.1506 -62.9754
rradius 19.8976
rwrist 40.3619
rhand -20.6905 -23.7565
rfingers 7.12502
rthumb 5.67316 -53.6606
lclavicle 7.15625e-015 1.07344e-014
lhumerus -33.8497 13.1654 71.4879
lradius 12.0497
lwrist 0.517495
lhand -26.928 -9.45425
lfingers 7.12502
lthumb -0.350537 20.5252
rfemur -61.0249 -3.59839 19.9476
rtibia 79.701
rfoot -31.803 -18.5408
rtoes -2.02873
lfemur -60.5362 3.15273 -21.0838
ltibia 78.1696
lfoot -28.616 19.991
ltoes -7.11368
213
root 0.303261 14.5726 -14.5968 17.7823 1.43145 -0.437945
lowerback 23.3177 0.460787 -0.275702
upperback 6.68545 0.677034 1.92116
thorax -5.67889 0.322494 2.053
lowerneck -22.8989 -0.225374 -2.12489
upperneck 18.9425 0.658909 -1.01832
head 9.78294 0.0215553 0.0868737
rclavicle 1.19271e-015 -3.57812e-015
rhumerus -43.1885 -17.2459 -64.8958
rradius 21.3381
rwrist 38.4527
rhand -20.9002 -23.9206
rfingers 7.12502
rthumb 5.47067 -53.83
lclavicle 1.19271e-015 -3.57812e-015
lhumerus -31.4609 10.3985 73.8703
lradius 13.8499
lwrist 5.0217
lhand -27.8789 -10.2282
lfingers 7.12502
lthumb -1.26899 19.7477
rfemur -60.2687 -3.68728 19.9686
rtibia 79.2097
rfoot -31.806 -18.6534
rtoes -2.7422
lfemur -59.8081 3.22006 -21.0392
ltibia 77.68
lfoot -28.6556 19.9475
ltoes -7.86001
